<?xml version="1.0" encoding="UTF-8"?>
<!DOCTYPE svg PUBLIC "-//W3C//DTD SVG 1.1//EN" "http://www.w3.org/Graphics/SVG/1.1/DTD/svg11.dtd">
<svg xmlns="http://www.w3.org/2000/svg" version="1.1" width="1129px" height="753px" style="shape-rendering:geometricPrecision; text-rendering:geometricPrecision; image-rendering:optimizeQuality; fill-rule:evenodd; clip-rule:evenodd" xmlns:xlink="http://www.w3.org/1999/xlink">
<g><path style="opacity:0.431" fill="#8a898e" d="M 529.5,75.5 C 486.107,76.0318 443.44,76.3651 401.5,76.5C 421.989,75.167 442.822,74.5003 464,74.5C 486.181,74.5163 508.014,74.8496 529.5,75.5 Z"/></g>
<g><path style="opacity:0.999" fill="#d4d4d4" d="M 529.5,75.5 C 538.167,75.5 546.833,75.5 555.5,75.5C 559.116,77.8419 563.116,78.1753 567.5,76.5C 577.869,76.1895 587.536,76.5228 596.5,77.5C 602.794,79.2309 609.127,79.5643 615.5,78.5C 616.833,78.5 618.167,78.5 619.5,78.5C 620.287,80.1042 621.62,80.7709 623.5,80.5C 629.618,82.43 635.618,84.7633 641.5,87.5C 641.973,88.9063 642.973,89.573 644.5,89.5C 647.395,90.3994 650.062,91.7328 652.5,93.5C 654.683,97.3309 658.016,99.6642 662.5,100.5C 669.82,105.487 676.153,111.487 681.5,118.5C 681.427,120.027 682.094,121.027 683.5,121.5C 686.579,124.65 688.913,128.317 690.5,132.5C 690.755,134.967 691.755,136.967 693.5,138.5C 693.427,140.027 694.094,141.027 695.5,141.5C 695.5,141.833 695.5,142.167 695.5,142.5C 695.935,145.157 696.935,147.491 698.5,149.5C 698.5,149.833 698.5,150.167 698.5,150.5C 697.908,153.631 698.908,155.964 701.5,157.5C 701.5,157.833 701.5,158.167 701.5,158.5C 700.861,159.097 700.528,159.93 700.5,161C 701.571,165.119 702.405,169.285 703,173.5C 703.383,172.944 703.883,172.611 704.5,172.5C 704.5,174.5 704.5,176.5 704.5,178.5C 704.334,182.846 704.501,187.179 705,191.5C 705.278,190.584 705.778,189.918 706.5,189.5C 706.5,192.167 706.5,194.833 706.5,197.5C 705.833,197.5 705.5,197.833 705.5,198.5C 684.131,190.97 662.131,186.303 639.5,184.5C 639.389,183.883 639.056,183.383 638.5,183C 624.488,182.833 610.488,182.333 596.5,181.5C 595.995,180.081 594.995,179.415 593.5,179.5C 591.571,177.94 590.238,175.94 589.5,173.5C 589.068,172.29 588.401,171.29 587.5,170.5C 585.571,168.94 584.238,166.94 583.5,164.5C 577.374,147.849 567.707,133.015 554.5,120C 535.078,106.406 514.078,103.406 491.5,111C 485.759,113.033 480.093,115.367 474.5,118C 473.398,120.401 473.231,122.901 474,125.5C 477.11,138.194 484.443,147.527 496,153.5C 500.777,153.615 503.777,155.949 505,160.5C 511.487,175.632 510.653,190.298 502.5,204.5C 481.166,185.649 458.333,168.983 434,154.5C 430.005,157.004 426.172,159.671 422.5,162.5C 431.437,177.641 438.437,193.641 443.5,210.5C 443.058,211.739 442.391,212.739 441.5,213.5C 428.122,212.905 415.288,210.239 403,205.5C 402.601,205.728 402.435,206.062 402.5,206.5C 402.167,206.5 401.833,206.5 401.5,206.5C 401.5,163.167 401.5,119.833 401.5,76.5C 443.44,76.3651 486.107,76.0318 529.5,75.5 Z"/></g>
<g><path style="opacity:0.431" fill="#7c6f75" d="M 555.5,75.5 C 559.702,75.1832 563.702,75.5166 567.5,76.5C 563.116,78.1753 559.116,77.8419 555.5,75.5 Z"/></g>
<g><path style="opacity:0.431" fill="#71646c" d="M 596.5,77.5 C 602.845,77.6527 609.178,77.986 615.5,78.5C 609.127,79.5643 602.794,79.2309 596.5,77.5 Z"/></g>
<g><path style="opacity:0.173" fill="#4e3849" d="M 619.5,78.5 C 621.153,78.6596 622.486,79.3263 623.5,80.5C 621.62,80.7709 620.287,80.1042 619.5,78.5 Z"/></g>
<g><path style="opacity:0.067" fill="#4e3849" d="M 641.5,87.5 C 643.027,87.427 644.027,88.0937 644.5,89.5C 642.973,89.573 641.973,88.9063 641.5,87.5 Z"/></g>
<g><path style="opacity:0.431" fill="#887f85" d="M 652.5,93.5 C 656.221,95.3535 659.554,97.6869 662.5,100.5C 658.016,99.6642 654.683,97.3309 652.5,93.5 Z"/></g>
<g><path style="opacity:1" fill="#918f90" d="M 583.5,164.5 C 582.711,164.217 582.044,163.717 581.5,163C 560.169,162.5 538.836,162.333 517.5,162.5C 517.5,179.167 517.5,195.833 517.5,212.5C 493.212,213.481 468.878,213.814 444.5,213.5C 443.5,213.5 442.5,213.5 441.5,213.5C 442.391,212.739 443.058,211.739 443.5,210.5C 438.437,193.641 431.437,177.641 422.5,162.5C 426.172,159.671 430.005,157.004 434,154.5C 458.333,168.983 481.166,185.649 502.5,204.5C 510.653,190.298 511.487,175.632 505,160.5C 503.777,155.949 500.777,153.615 496,153.5C 484.443,147.527 477.11,138.194 474,125.5C 473.231,122.901 473.398,120.401 474.5,118C 480.093,115.367 485.759,113.033 491.5,111C 514.078,103.406 535.078,106.406 554.5,120C 567.707,133.015 577.374,147.849 583.5,164.5 Z"/></g>
<g><path style="opacity:0.173" fill="#4c394c" d="M 681.5,118.5 C 682.906,118.973 683.573,119.973 683.5,121.5C 682.094,121.027 681.427,120.027 681.5,118.5 Z"/></g>
<g><path style="opacity:0.431" fill="#6f646d" d="M 690.5,132.5 C 692.245,134.033 693.245,136.033 693.5,138.5C 691.755,136.967 690.755,134.967 690.5,132.5 Z"/></g>
<g><path style="opacity:0.173" fill="#4c394c" d="M 693.5,138.5 C 694.906,138.973 695.573,139.973 695.5,141.5C 694.094,141.027 693.427,140.027 693.5,138.5 Z"/></g>
<g><path style="opacity:0.067" fill="#4b3a4e" d="M 695.5,142.5 C 697.448,144.32 698.448,146.654 698.5,149.5C 696.935,147.491 695.935,145.157 695.5,142.5 Z"/></g>
<g><path style="opacity:0.635" fill="#76666f" d="M 698.5,150.5 C 700.065,152.509 701.065,154.843 701.5,157.5C 698.908,155.964 697.908,153.631 698.5,150.5 Z"/></g>
<g><path style="opacity:0.635" fill="#7c7077" d="M 701.5,158.5 C 702.928,163.064 703.928,167.731 704.5,172.5C 703.883,172.611 703.383,172.944 703,173.5C 702.405,169.285 701.571,165.119 700.5,161C 700.528,159.93 700.861,159.097 701.5,158.5 Z"/></g>
<g><path style="opacity:0.067" fill="#533341" d="M 587.5,170.5 C 588.401,171.29 589.068,172.29 589.5,173.5C 587.952,173.179 587.285,172.179 587.5,170.5 Z"/></g>
<g><path style="opacity:1" fill="#929396" d="M 593.5,179.5 C 594.995,179.415 595.995,180.081 596.5,181.5C 610.488,182.333 624.488,182.833 638.5,183C 639.056,183.383 639.389,183.883 639.5,184.5C 625.196,183.569 610.863,183.236 596.5,183.5C 594.468,182.952 593.468,181.619 593.5,179.5 Z"/></g>
<g><path style="opacity:1" fill="#105795" d="M 596.5,183.5 C 610.863,183.236 625.196,183.569 639.5,184.5C 662.131,186.303 684.131,190.97 705.5,198.5C 705.249,203.507 704.916,208.507 704.5,213.5C 704.038,228.375 700.038,242.042 692.5,254.5C 690.49,255.915 688.657,257.582 687,259.5C 685.359,262.75 683.859,266.083 682.5,269.5C 677.622,276.448 671.622,282.281 664.5,287C 656.953,291.584 649.287,296.084 641.5,300.5C 643.69,303.765 645.69,307.099 647.5,310.5C 647.974,314.281 649.641,317.448 652.5,320C 640.167,320.333 627.833,320.667 615.5,321C 613.942,321.21 612.609,321.71 611.5,322.5C 591.906,324.594 572.906,328.927 554.5,335.5C 553.5,335.5 552.5,335.5 551.5,335.5C 545.919,332.076 541.919,327.243 539.5,321C 531.507,320.5 523.507,320.334 515.5,320.5C 522.678,319.833 530.011,319.167 537.5,318.5C 531.777,307.223 527.444,295.556 524.5,283.5C 523.348,272.528 523.348,261.695 524.5,251C 525.025,250.308 525.692,249.808 526.5,249.5C 540.023,251.423 553.023,249.59 565.5,244C 549.167,243.667 532.833,243.333 516.5,243C 533.338,242.832 550.005,242.332 566.5,241.5C 580.193,237.721 589.86,229.388 595.5,216.5C 597.511,214.333 598.678,211.666 599,208.5C 599.667,201.167 599.667,193.833 599,186.5C 598.329,187.252 597.496,187.586 596.5,187.5C 596.5,186.167 596.5,184.833 596.5,183.5 Z"/></g>
<g><path style="opacity:0.431" fill="#72646c" d="M 704.5,178.5 C 705.525,181.974 706.192,185.64 706.5,189.5C 705.778,189.918 705.278,190.584 705,191.5C 704.501,187.179 704.334,182.846 704.5,178.5 Z"/></g>
<g><path style="opacity:0.576" fill="#384770" d="M 595.5,216.5 C 598.139,206.714 598.472,197.048 596.5,187.5C 597.496,187.586 598.329,187.252 599,186.5C 599.667,193.833 599.667,201.167 599,208.5C 598.678,211.666 597.511,214.333 595.5,216.5 Z"/></g>
<g><path style="opacity:0.067" fill="#533340" d="M 706.5,197.5 C 706.745,203.084 706.078,208.417 704.5,213.5C 704.916,208.507 705.249,203.507 705.5,198.5C 705.5,197.833 705.833,197.5 706.5,197.5 Z"/></g>
<g><path style="opacity:1" fill="#0964ab" d="M 441.5,213.5 C 442.5,213.5 443.5,213.5 444.5,213.5C 457.692,255.428 462.359,298.428 458.5,342.5C 439.833,342.5 421.167,342.5 402.5,342.5C 402.5,297.167 402.5,251.833 402.5,206.5C 402.435,206.062 402.601,205.728 403,205.5C 415.288,210.239 428.122,212.905 441.5,213.5 Z"/></g>
<g><path style="opacity:1" fill="#0f3d6b" d="M 401.5,206.5 C 401.833,206.5 402.167,206.5 402.5,206.5C 402.5,251.833 402.5,297.167 402.5,342.5C 421.167,342.5 439.833,342.5 458.5,342.5C 462.359,298.428 457.692,255.428 444.5,213.5C 468.878,213.814 493.212,213.481 517.5,212.5C 517.5,222.167 517.5,231.833 517.5,241.5C 533.833,241.5 550.167,241.5 566.5,241.5C 550.005,242.332 533.338,242.832 516.5,243C 532.833,243.333 549.167,243.667 565.5,244C 553.023,249.59 540.023,251.423 526.5,249.5C 525.692,249.808 525.025,250.308 524.5,251C 523.348,261.695 523.348,272.528 524.5,283.5C 527.444,295.556 531.777,307.223 537.5,318.5C 530.011,319.167 522.678,319.833 515.5,320.5C 516.473,330.084 516.806,339.75 516.5,349.5C 514.283,350.369 511.95,350.702 509.5,350.5C 507.297,350.935 505.297,350.935 503.5,350.5C 493.019,350.832 482.686,350.832 472.5,350.5C 456.604,350.055 440.937,347.888 425.5,344C 417.507,343.5 409.507,343.334 401.5,343.5C 401.5,297.833 401.5,252.167 401.5,206.5 Z"/></g>
<g><path style="opacity:0.576" fill="#3c4364" d="M 692.5,254.5 C 689.93,260.059 686.596,265.059 682.5,269.5C 683.859,266.083 685.359,262.75 687,259.5C 688.657,257.582 690.49,255.915 692.5,254.5 Z"/></g>
<g><path style="opacity:0.275" fill="#473c53" d="M 515.5,320.5 C 523.507,320.334 531.507,320.5 539.5,321C 541.919,327.243 545.919,332.076 551.5,335.5C 545.255,333.757 541.088,329.757 539,323.5C 538,322.833 537,322.167 536,321.5C 530.449,322.397 524.782,322.397 519,321.5C 517.859,331.182 517.025,340.849 516.5,350.5C 516.5,350.167 516.5,349.833 516.5,349.5C 516.806,339.75 516.473,330.084 515.5,320.5 Z"/></g>
<g><path style="opacity:1" fill="#493c62" d="M 647.5,310.5 C 650.106,314.122 652.772,317.788 655.5,321.5C 640.814,321.293 626.147,321.627 611.5,322.5C 612.609,321.71 613.942,321.21 615.5,321C 627.833,320.667 640.167,320.333 652.5,320C 649.641,317.448 647.974,314.281 647.5,310.5 Z"/></g>
<g><path style="opacity:0.999" fill="#f21a2a" d="M 655.5,321.5 C 656.537,322.93 657.204,324.597 657.5,326.5C 657.725,329.546 659.058,331.879 661.5,333.5C 664.33,340.686 667.663,347.686 671.5,354.5C 673.553,357.866 675.886,360.866 678.5,363.5C 678.5,363.833 678.5,364.167 678.5,364.5C 680.567,370.975 683.9,376.642 688.5,381.5C 688.229,383.38 688.896,384.713 690.5,385.5C 690.5,386.833 691.167,387.5 692.5,387.5C 692.5,387.833 692.5,388.167 692.5,388.5C 692.554,390.632 693.554,391.965 695.5,392.5C 695.5,392.833 695.5,393.167 695.5,393.5C 696.079,396.331 697.412,398.664 699.5,400.5C 699.5,401.833 700.167,402.5 701.5,402.5C 701.5,402.833 701.5,403.167 701.5,403.5C 701.554,405.632 702.554,406.965 704.5,407.5C 704.5,407.833 704.5,408.167 704.5,408.5C 704.427,410.027 705.094,411.027 706.5,411.5C 707.828,416.165 710.161,420.165 713.5,423.5C 714.551,426.961 716.551,429.627 719.5,431.5C 719.5,431.833 719.5,432.167 719.5,432.5C 719.981,435.834 721.647,438.167 724.5,439.5C 726.074,441.102 726.741,443.102 726.5,445.5C 725.5,445.5 724.5,445.5 723.5,445.5C 707.158,448.44 690.825,450.44 674.5,451.5C 674.167,451.5 673.833,451.5 673.5,451.5C 664.167,451.5 654.833,451.5 645.5,451.5C 645.167,451.5 644.833,451.5 644.5,451.5C 633.637,450.614 622.637,449.614 611.5,448.5C 610.5,448.167 609.833,447.5 609.5,446.5C 607.6,441.701 604.933,437.368 601.5,433.5C 601.33,430.796 599.997,429.129 597.5,428.5C 597.509,426.692 597.009,425.025 596,423.5C 592.059,416.601 587.892,409.934 583.5,403.5C 583.446,401.368 582.446,400.035 580.5,399.5C 580.5,398.833 580.5,398.167 580.5,397.5C 579.87,395.25 578.87,393.25 577.5,391.5C 574.232,383.292 570.232,375.625 565.5,368.5C 565.128,362.446 563.128,357.112 559.5,352.5C 558.025,346.746 556.359,341.08 554.5,335.5C 572.906,328.927 591.906,324.594 611.5,322.5C 626.147,321.627 640.814,321.293 655.5,321.5 Z"/></g>
<g><path style="opacity:0.31" fill="#722c32" d="M 657.5,326.5 C 659.588,328.336 660.921,330.669 661.5,333.5C 659.058,331.879 657.725,329.546 657.5,326.5 Z"/></g>
<g><path style="opacity:0.31" fill="#762b30" d="M 661.5,333.5 C 667.664,343.154 673.33,353.154 678.5,363.5C 675.886,360.866 673.553,357.866 671.5,354.5C 667.663,347.686 664.33,340.686 661.5,333.5 Z"/></g>
<g><path style="opacity:0.067" fill="#6d2e35" d="M 551.5,335.5 C 552.5,335.5 553.5,335.5 554.5,335.5C 556.359,341.08 558.025,346.746 559.5,352.5C 556.479,347.158 553.813,341.492 551.5,335.5 Z"/></g>
<g><path style="opacity:1" fill="#eb1a2a" d="M 401.5,343.5 C 409.507,343.334 417.507,343.5 425.5,344C 440.937,347.888 456.604,350.055 472.5,350.5C 482.83,353.119 493.163,353.119 503.5,350.5C 505.297,350.935 507.297,350.935 509.5,350.5C 510.829,383.931 510.829,417.264 509.5,450.5C 475.329,450.168 441.329,450.502 407.5,451.5C 405.5,451.167 403.5,450.833 401.5,450.5C 401.5,414.833 401.5,379.167 401.5,343.5 Z"/></g>
<g><path style="opacity:0.996" fill="#68252c" d="M 516.5,349.5 C 516.5,349.833 516.5,350.167 516.5,350.5C 517.829,386.598 517.829,422.598 516.5,458.5C 509.839,458.465 502.839,459.132 495.5,460.5C 490.167,460.5 484.833,460.5 479.5,460.5C 467.928,458.794 455.595,457.794 442.5,457.5C 436.384,457.683 430.217,457.017 424,455.5C 423.667,455.833 423.333,456.167 423,456.5C 421.052,455.891 419.218,455.224 417.5,454.5C 418.404,453.791 418.737,452.791 418.5,451.5C 448.557,451.774 478.391,452.107 508,452.5C 508.717,451.956 509.217,451.289 509.5,450.5C 510.829,417.264 510.829,383.931 509.5,350.5C 511.95,350.702 514.283,350.369 516.5,349.5 Z"/></g>
<g><path style="opacity:1" fill="#88242f" d="M 472.5,350.5 C 482.686,350.832 493.019,350.832 503.5,350.5C 493.163,353.119 482.83,353.119 472.5,350.5 Z"/></g>
<g><path style="opacity:0.31" fill="#7d272c" d="M 559.5,352.5 C 563.128,357.112 565.128,362.446 565.5,368.5C 563.088,363.796 560.754,358.962 558.5,354C 559.056,353.617 559.389,353.117 559.5,352.5 Z"/></g>
<g><path style="opacity:0.31" fill="#7d282e" d="M 678.5,364.5 C 682.203,369.934 685.536,375.601 688.5,381.5C 683.9,376.642 680.567,370.975 678.5,364.5 Z"/></g>
<g><path style="opacity:0.067" fill="#682e36" d="M 565.5,368.5 C 570.232,375.625 574.232,383.292 577.5,391.5C 572.386,384.55 568.386,376.883 565.5,368.5 Z"/></g>
<g><path style="opacity:0.486" fill="#6d2d33" d="M 688.5,381.5 C 689.674,382.514 690.34,383.847 690.5,385.5C 688.896,384.713 688.229,383.38 688.5,381.5 Z"/></g>
<g><path style="opacity:0.067" fill="#59333e" d="M 690.5,385.5 C 691.833,385.5 692.5,386.167 692.5,387.5C 692.5,386.167 691.833,385.5 690.5,385.5 Z"/></g>
<g><path style="opacity:0.173" fill="#5d333e" d="M 692.5,388.5 C 693.974,389.436 694.974,390.77 695.5,392.5C 693.554,391.965 692.554,390.632 692.5,388.5 Z"/></g>
<g><path style="opacity:0.486" fill="#6e2d33" d="M 577.5,391.5 C 578.87,393.25 579.87,395.25 580.5,397.5C 578.912,396.359 577.579,394.859 576.5,393C 577.056,392.617 577.389,392.117 577.5,391.5 Z"/></g>
<g><path style="opacity:0.486" fill="#682f36" d="M 695.5,393.5 C 697.588,395.336 698.921,397.669 699.5,400.5C 697.412,398.664 696.079,396.331 695.5,393.5 Z"/></g>
<g><path style="opacity:0.173" fill="#5d333e" d="M 580.5,399.5 C 582.446,400.035 583.446,401.368 583.5,403.5C 582.026,402.564 581.026,401.23 580.5,399.5 Z"/></g>
<g><path style="opacity:0.067" fill="#59333e" d="M 699.5,400.5 C 700.833,400.5 701.5,401.167 701.5,402.5C 701.5,401.167 700.833,400.5 699.5,400.5 Z"/></g>
<g><path style="opacity:0.173" fill="#5d333e" d="M 701.5,403.5 C 702.974,404.436 703.974,405.77 704.5,407.5C 702.554,406.965 701.554,405.632 701.5,403.5 Z"/></g>
<g><path style="opacity:0.173" fill="#5a333f" d="M 704.5,408.5 C 705.906,408.973 706.573,409.973 706.5,411.5C 705.094,411.027 704.427,410.027 704.5,408.5 Z"/></g>
<g><path style="opacity:0.31" fill="#7b272d" d="M 706.5,411.5 C 707.458,411.953 708.292,412.619 709,413.5C 710.804,416.769 712.304,420.103 713.5,423.5C 710.161,420.165 707.828,416.165 706.5,411.5 Z"/></g>
<g><path style="opacity:0.067" fill="#6f2b32" d="M 583.5,403.5 C 587.892,409.934 592.059,416.601 596,423.5C 597.009,425.025 597.509,426.692 597.5,428.5C 592.077,420.659 587.41,412.326 583.5,403.5 Z"/></g>
<g><path style="opacity:0.173" fill="#682f37" d="M 713.5,423.5 C 715.975,425.77 717.975,428.437 719.5,431.5C 716.551,429.627 714.551,426.961 713.5,423.5 Z"/></g>
<g><path style="opacity:0.31" fill="#8b2026" d="M 597.5,428.5 C 599.997,429.129 601.33,430.796 601.5,433.5C 599.478,432.493 598.145,430.826 597.5,428.5 Z"/></g>
<g><path style="opacity:0.62" fill="#7f2a30" d="M 719.5,432.5 C 721.547,434.55 723.214,436.883 724.5,439.5C 721.647,438.167 719.981,435.834 719.5,432.5 Z"/></g>
<g><path style="opacity:0.31" fill="#7b282d" d="M 601.5,433.5 C 604.933,437.368 607.6,441.701 609.5,446.5C 606.067,442.632 603.4,438.299 601.5,433.5 Z"/></g>
<g><path style="opacity:0.067" fill="#732b31" d="M 723.5,445.5 C 723.389,446.117 723.056,446.617 722.5,447C 708.663,449.926 694.663,451.426 680.5,451.5C 678.5,451.5 676.5,451.5 674.5,451.5C 690.825,450.44 707.158,448.44 723.5,445.5 Z"/></g>
<g><path style="opacity:0.067" fill="#6b2d35" d="M 611.5,448.5 C 622.637,449.614 633.637,450.614 644.5,451.5C 642.5,451.5 640.5,451.5 638.5,451.5C 630.135,451.553 621.802,451.053 613.5,450C 612.584,449.722 611.918,449.222 611.5,448.5 Z"/></g>
<g><path style="opacity:1" fill="#ad1c2b" d="M 509.5,450.5 C 509.217,451.289 508.717,451.956 508,452.5C 478.391,452.107 448.557,451.774 418.5,451.5C 418.737,452.791 418.404,453.791 417.5,454.5C 417.5,453.5 417.5,452.5 417.5,451.5C 413.918,451.729 410.584,451.729 407.5,451.5C 441.329,450.502 475.329,450.168 509.5,450.5 Z"/></g>
<g><path style="opacity:0.173" fill="#523442" d="M 638.5,451.5 C 640.5,451.5 642.5,451.5 644.5,451.5C 644.833,451.5 645.167,451.5 645.5,451.5C 645.5,451.833 645.5,452.167 645.5,452.5C 644.103,452.795 642.603,453.129 641,453.5C 640.005,452.934 639.172,452.267 638.5,451.5 Z"/></g>
<g><path style="opacity:0.486" fill="#7d2429" d="M 673.5,451.5 C 664.682,452.493 655.682,452.827 646.5,452.5C 646.167,452.5 645.833,452.5 645.5,452.5C 645.5,452.167 645.5,451.833 645.5,451.5C 654.833,451.5 664.167,451.5 673.5,451.5 Z"/></g>
<g><path style="opacity:0.31" fill="#75252a" d="M 401.5,450.5 C 403.5,450.833 405.5,451.167 407.5,451.5C 410.584,451.729 413.918,451.729 417.5,451.5C 417.5,452.5 417.5,453.5 417.5,454.5C 413.516,454.531 409.683,453.864 406,452.5C 404.644,453.38 403.144,453.714 401.5,453.5C 401.5,452.5 401.5,451.5 401.5,450.5 Z"/></g>
<g><path style="opacity:0.067" fill="#53323f" d="M 673.5,451.5 C 673.833,451.5 674.167,451.5 674.5,451.5C 676.5,451.5 678.5,451.5 680.5,451.5C 679.391,452.29 678.058,452.79 676.5,453C 666.325,453.825 656.325,453.658 646.5,452.5C 655.682,452.827 664.682,452.493 673.5,451.5 Z"/></g>
<g><path style="opacity:0.067" fill="#4f3748" d="M 442.5,457.5 C 455.595,457.794 467.928,458.794 479.5,460.5C 472.159,460.666 464.826,460.5 457.5,460C 456.975,459.308 456.308,458.808 455.5,458.5C 454.033,458.723 452.533,459.056 451,459.5C 448.061,458.872 445.228,458.205 442.5,457.5 Z"/></g>
<g><path style="opacity:0.173" fill="#4d394c" d="M 516.5,458.5 C 512.364,460.176 507.864,461.176 503,461.5C 500.619,460.565 498.119,460.232 495.5,460.5C 502.839,459.132 509.839,458.465 516.5,458.5 Z"/></g>
<g><path style="opacity:0.958" fill="#fefefe" d="M 3.5,586.5 C 27.2052,586.062 50.8719,586.562 74.5,588C 104.503,597.491 115.669,617.658 108,648.5C 102.516,662.486 92.6825,671.819 78.5,676.5C 78.4914,678.308 78.9914,679.975 80,681.5C 92.7522,702.669 105.252,724.002 117.5,745.5C 111.946,746.806 106.446,746.806 101,745.5C 88.6262,723.918 76.1262,702.418 63.5,681C 48.1703,680.5 32.837,680.333 17.5,680.5C 17.5,702.5 17.5,724.5 17.5,746.5C 12.8333,746.5 8.16667,746.5 3.5,746.5C 3.5,693.167 3.5,639.833 3.5,586.5 Z M 17.5,598.5 C 32.5037,598.333 47.5037,598.5 62.5,599C 88.6386,603.162 99.1386,618.329 94,644.5C 89.3545,657.475 80.1878,664.975 66.5,667C 50.1701,667.5 33.8367,667.667 17.5,667.5C 17.5,644.5 17.5,621.5 17.5,598.5 Z"/></g>
<g><path style="opacity:0.958" fill="#fefefe" d="M 379.5,596.5 C 384.167,596.5 388.833,596.5 393.5,596.5C 393.5,606.833 393.5,617.167 393.5,627.5C 401.833,627.5 410.167,627.5 418.5,627.5C 418.5,631.167 418.5,634.833 418.5,638.5C 410.167,638.5 401.833,638.5 393.5,638.5C 393.041,667.875 393.541,697.209 395,726.5C 397.093,733.641 401.927,736.975 409.5,736.5C 412.817,735.947 416.15,735.614 419.5,735.5C 420.272,739.452 420.605,743.452 420.5,747.5C 411.464,748.998 402.464,748.831 393.5,747C 385.104,742.392 380.604,735.226 380,725.5C 379.5,696.502 379.333,667.502 379.5,638.5C 372.167,638.5 364.833,638.5 357.5,638.5C 357.5,634.833 357.5,631.167 357.5,627.5C 364.833,627.5 372.167,627.5 379.5,627.5C 379.5,617.167 379.5,606.833 379.5,596.5 Z"/></g>
<g><path style="opacity:0.933" fill="#fefefe" d="M 183.5,624.5 C 214.728,625.225 231.561,641.225 234,672.5C 234.499,677.823 234.666,683.156 234.5,688.5C 206.167,688.5 177.833,688.5 149.5,688.5C 149.314,706.963 156.647,721.463 171.5,732C 191.528,740.868 208.695,737.034 223,720.5C 225.667,722.5 228.333,724.5 231,726.5C 226.424,736.057 218.924,742.557 208.5,746C 171.939,754.643 148.106,741.143 137,705.5C 132.593,683.597 136.26,663.264 148,644.5C 157.232,632.973 169.065,626.307 183.5,624.5 Z M 179.5,637.5 C 197.392,635.026 209.892,642.026 217,658.5C 218.862,664.369 220.029,670.369 220.5,676.5C 197.167,676.5 173.833,676.5 150.5,676.5C 152.221,657.317 161.888,644.317 179.5,637.5 Z"/></g>
<g><path style="opacity:0.931" fill="#fefefe" d="M 294.5,624.5 C 311.276,623.224 325.443,628.557 337,640.5C 341.475,646.759 343.642,653.759 343.5,661.5C 338.786,661.827 334.12,661.493 329.5,660.5C 325.604,644.367 315.27,636.7 298.5,637.5C 283.409,636.36 274.075,643.026 270.5,657.5C 271.105,663.887 274.105,668.721 279.5,672C 283.419,673.862 287.419,675.529 291.5,677C 305.088,679.645 318.088,683.978 330.5,690C 342.138,698.235 346.305,709.402 343,723.5C 337.558,737.92 327.058,746.087 311.5,748C 291.126,752.005 273.626,746.838 259,732.5C 254.734,726.535 252.567,719.868 252.5,712.5C 257.179,712.334 261.845,712.501 266.5,713C 269.037,726.796 277.37,734.463 291.5,736C 302.692,738.076 313.025,736.076 322.5,730C 334.07,715.075 331.07,703.742 313.5,696C 303.405,692.914 293.238,690.081 283,687.5C 258.232,679.638 251.232,663.971 262,640.5C 270.785,630.858 281.618,625.525 294.5,624.5 Z"/></g>
<g><path style="opacity:0.952" fill="#fefefe" d="M 487.5,624.5 C 491.825,624.379 495.991,625.046 500,626.5C 500.499,630.821 500.666,635.154 500.5,639.5C 481.211,635.56 467.711,642.56 460,660.5C 458.525,689.103 458.025,717.77 458.5,746.5C 453.833,746.5 449.167,746.5 444.5,746.5C 444.5,706.833 444.5,667.167 444.5,627.5C 449.167,627.5 453.833,627.5 458.5,627.5C 458.334,632.844 458.501,638.177 459,643.5C 465.325,632.264 474.825,625.93 487.5,624.5 Z"/></g>
<g><path style="opacity:0.935" fill="#fefefe" d="M 558.5,624.5 C 589.728,625.225 606.561,641.225 609,672.5C 609.499,677.823 609.666,683.156 609.5,688.5C 581.167,688.5 552.833,688.5 524.5,688.5C 524.314,706.963 531.647,721.463 546.5,732C 566.528,740.868 583.695,737.034 598,720.5C 600.667,722.5 603.333,724.5 606,726.5C 601.424,736.057 593.924,742.557 583.5,746C 546.939,754.643 523.106,741.143 512,705.5C 507.694,683.61 511.361,663.277 523,644.5C 532.232,632.973 544.065,626.307 558.5,624.5 Z M 554.5,637.5 C 572.392,635.026 584.892,642.026 592,658.5C 593.862,664.369 595.029,670.369 595.5,676.5C 572.167,676.5 548.833,676.5 525.5,676.5C 527.221,657.317 536.888,644.317 554.5,637.5 Z"/></g>
<g><path style="opacity:0.932" fill="#fefefe" d="M 672.5,624.5 C 688.429,623.306 701.929,628.306 713,639.5C 717.65,646.424 719.983,654.091 720,662.5C 720.333,686.167 720.667,709.833 721,733.5C 721.737,737.87 722.57,742.204 723.5,746.5C 718.456,746.827 713.456,746.494 708.5,745.5C 707.179,740.934 706.345,736.267 706,731.5C 689.119,748.479 669.285,752.979 646.5,745C 629.594,734.96 624.094,720.46 630,701.5C 637.519,687.341 649.352,679.507 665.5,678C 678.796,676.668 692.129,676.168 705.5,676.5C 710.266,652.128 700.433,638.795 676,636.5C 664.746,636.802 655.413,641.135 648,649.5C 646.06,652.928 644.894,656.594 644.5,660.5C 639.833,660.5 635.167,660.5 630.5,660.5C 632.216,644.268 640.882,633.434 656.5,628C 661.905,626.504 667.239,625.337 672.5,624.5 Z M 678.5,687.5 C 687.5,687.5 696.5,687.5 705.5,687.5C 711.034,717.301 698.701,733.635 668.5,736.5C 651.425,735.923 642.591,727.257 642,710.5C 645.482,699.471 652.982,692.638 664.5,690C 669.315,689.197 673.981,688.363 678.5,687.5 Z"/></g>
<g><path style="opacity:0.944" fill="#fefefe" d="M 801.5,624.5 C 815.712,623.399 827.545,628.066 837,638.5C 838.333,641.167 839.667,643.833 841,646.5C 853.941,628.511 871.441,621.678 893.5,626C 909.559,630.743 918.392,641.577 920,658.5C 920.5,687.831 920.667,717.165 920.5,746.5C 915.833,746.5 911.167,746.5 906.5,746.5C 906.953,716.13 906.453,685.797 905,655.5C 901.029,642.839 892.362,636.839 879,637.5C 861.777,637.782 850.444,646.115 845,662.5C 843.543,690.458 843.043,718.458 843.5,746.5C 838.833,746.5 834.167,746.5 829.5,746.5C 829.969,715.784 829.469,685.117 828,654.5C 823.524,642.586 814.858,636.92 802,637.5C 784.627,638.194 773.294,646.861 768,663.5C 767.5,691.165 767.333,718.831 767.5,746.5C 762.833,746.5 758.167,746.5 753.5,746.5C 753.5,706.833 753.5,667.167 753.5,627.5C 757.833,627.5 762.167,627.5 766.5,627.5C 767.109,632.812 767.609,638.146 768,643.5C 776.486,632.343 787.653,626.01 801.5,624.5 Z"/></g>
<g><path style="opacity:0.933" fill="#fefefe" d="M 993.5,624.5 C 1018.96,624.148 1035.13,636.148 1042,660.5C 1043.92,669.735 1044.75,679.069 1044.5,688.5C 1016.17,688.5 987.833,688.5 959.5,688.5C 959.332,705.993 965.999,720.16 979.5,731C 1000.06,741.188 1017.9,737.688 1033,720.5C 1035.67,722.5 1038.33,724.5 1041,726.5C 1036.42,736.057 1028.92,742.557 1018.5,746C 981.939,754.643 958.106,741.143 947,705.5C 942.509,683.578 946.175,663.245 958,644.5C 967.159,633.006 978.992,626.339 993.5,624.5 Z M 989.5,637.5 C 1006.37,635.017 1018.54,641.351 1026,656.5C 1028.45,662.962 1029.95,669.629 1030.5,676.5C 1007.17,676.5 983.833,676.5 960.5,676.5C 962.221,657.317 971.888,644.317 989.5,637.5 Z"/></g>
<g><path style="opacity:0.95" fill="#fefefe" d="M 1112.5,624.5 C 1116.48,624.469 1120.32,625.136 1124,626.5C 1124.5,630.821 1124.67,635.154 1124.5,639.5C 1103.39,635.966 1089.55,644.3 1083,664.5C 1082.5,691.831 1082.33,719.165 1082.5,746.5C 1077.83,746.5 1073.17,746.5 1068.5,746.5C 1068.5,706.833 1068.5,667.167 1068.5,627.5C 1073.17,627.5 1077.83,627.5 1082.5,627.5C 1082.33,632.844 1082.5,638.177 1083,643.5C 1089.62,632.026 1099.45,625.693 1112.5,624.5 Z"/></g>
</svg>
